<?xml version="1.0" standalone="no"?><!DOCTYPE svg PUBLIC "-//W3C//DTD SVG 1.1//EN" "http://www.w3.org/Graphics/SVG/1.1/DTD/svg11.dtd"><svg t="1706173576262" class="icon" viewBox="0 0 1024 1024" version="1.1" xmlns="http://www.w3.org/2000/svg" p-id="26658" xmlns:xlink="http://www.w3.org/1999/xlink" width="200" height="200"><path d="M768 51.2a51.2 51.2 0 0 1 45.056 75.5712l-4.7104-8.3968 43.1616 78.2336 9.1648 16.7936a76.8 76.8 0 0 1 56.1152 142.1824l0.0512 1.6896c0.1024 151.8592 0.1024 303.616 0 455.424 0 3.1744-0.0512 6.2976-0.2048 9.3696a76.8 76.8 0 1 1-93.3376 98.816 216.7808 216.7808 0 0 1-15.6672 0.5632c-65.6896 0.256-131.4304 0.1536-197.2224 0.1024H220.7744a250.368 250.368 0 0 1-20.1216-0.8192 76.8 76.8 0 1 1-92.8256-98.816 219.8016 219.8016 0 0 1-0.4608-14.4896V355.584A76.8 76.8 0 1 1 162.5088 212.992l7.3216-13.4144 1.5872-2.9184c7.7312-14.1312 15.5648-28.16 39.0656-70.7584A51.2 51.2 0 1 1 307.2 102.4l-0.3072-0.7168h21.9136l60.2112-0.0512H717.9264 716.8A51.2 51.2 0 0 1 768 51.2zM240.7424 714.496L179.2 838.7584c12.288 10.9568 20.992 25.8048 24.2176 42.5984 2.9184 0.1536 6.0928 0.256 9.4208 0.256l35.2768 0.0512h368.7936c64.8192 0.0512 129.6384 0.1024 194.4064 0 2.7136 0 5.2736-0.0512 7.7312-0.1536l1.536-0.1024c2.048-10.3936 6.144-20.0704 11.8272-28.5184l-68.096-118.016L512 876.8l-256-144.0256V716.8a51.2 51.2 0 0 1-15.2576-2.304zM811.52 287.232h-38.912l-0.256 327.3216a51.2 51.2 0 0 1 8.1408 100.7104l69.3248 119.3984c7.8848-5.9392 16.896-10.3936 26.7264-12.9536l0.1024-6.0416v-459.776a76.8512 76.8512 0 0 1-57.1904-68.4032zM248.5248 287.1808h-35.584c-2.9184 0-5.6832 0.1024-8.3968 0.256L204.8 281.6a76.8 76.8 0 0 1-57.1392 74.24v459.6736c0 2.2016 0 4.3008 0.1024 6.3488 3.9424 0.9728 7.68 2.304 11.3664 3.8912l61.184-123.392a51.2 51.2 0 0 1 28.16-87.3984l0.0512-327.7824zM512 377.8048L342.272 483.84v209.8688L512 799.8464l169.728-106.0864v-209.92L512 377.856z m0 230.4l118.8864 79.2576L512 761.856l-118.9376-74.3424L512 608.256z m-16.128-182.272v154.2144l-121.344 80.896V501.76l121.344-75.8272z m32.256 0l121.344 75.8272v159.3344l-121.344-80.896V425.9328z m114.0736-138.752H212.9408 265.728V439.296L512 300.8l243.0464 136.704 0.256-150.3232h-113.152z m135.424-134.6048l-3.6352 0.6656-1.7408 0.1024v94.1056l35.328 0.1024c5.2736 0 10.3424 0.2048 15.2064 0.6144l3.8912 0.3584 1.4848-2.9184-9.3696-17.1008-18.432-33.792 2.1504 3.9936 0.2048 0.4608-0.4096-0.768c-0.512-0.8704-1.1264-1.9456-1.7408-3.1744l-2.048-3.7888a4710.5536 4710.5536 0 0 1-1.8432-3.328l-0.8192-1.4848 0.6144 1.024 1.4336 2.56 1.6384 3.072-0.768-1.536-1.2288-2.1504-5.632-10.3936a1217.5872 1217.5872 0 0 1-14.2848-26.624zM245.2992 152.4736l-6.656 12.6976-7.68 14.08-5.632 10.3936 1.5872-3.0208-0.5632 1.024 0.2048-0.3072-0.2048 0.512-0.8704 1.6384-0.9728 1.6896-3.2768 5.9904-0.7168 1.2288 0.6656-1.1264 1.3312-2.4576-27.2384 49.7664c0.6656 1.1776 1.3312 2.4064 1.8944 3.6352l5.888-0.4096 10.5472-0.3072 34.7136-0.0512 0.2048-94.4128a51.0464 51.0464 0 0 1-3.2256-0.512z m484.7616-15.7184H293.888a51.1488 51.1488 0 0 1-28.16 15.872l-0.256 94.72c177.152-0.3072 367.9232-0.3072 542.0544 0.2048l-52.5312-0.1536V151.9616a51.2 51.2 0 0 1-24.9856-15.2064z" fill="#2D5FFF" p-id="26659"></path></svg>