<?xml version="1.0" standalone="no"?><!DOCTYPE svg PUBLIC "-//W3C//DTD SVG 1.1//EN" "http://www.w3.org/Graphics/SVG/1.1/DTD/svg11.dtd"><svg t="1706172350549" class="icon" viewBox="0 0 1024 1024" version="1.1" xmlns="http://www.w3.org/2000/svg" p-id="17216" xmlns:xlink="http://www.w3.org/1999/xlink" width="200" height="200"><path d="M341.205 228.038c-6.201-43.484-12.391-86.946-18.569-130.431-0.69-4.92-1.358-9.864-1.77-14.807-5.21-60.829-1.625-66.507 58.547-77.127 39.688-7.014 78.987-4.052 117.628 9.44 18.559 6.457 25.895 16.989 25.127 36.159-2.215 54.15-13.192 107.097-20.217 160.579-0.713 5.433-1.336 10.91-0.624 16.61 18.915-47.626 30.794-97.078 40.39-147.13 4.543-23.579 4.432-23.824 22.578-8.372 49.027 41.748 79.109 94.228 88.016 158.219 1.336 9.507 4.809 16.632 10.33 24.625 16.41 23.824 11.801 51.589 10.42 78.33-0.311 6.234-6.768 6.19-11.846 6.212-12.801 0.022-25.604 0.201-38.385-0.022-10.02-0.156-19.482-0.757-26.006 9.797-4.186 6.769-12.514 5.588-19.615 5.588-104.482 0.022-208.985 0.022-313.477-0.044-4.23-0.022-10.409 1.091-12.391-1.225-19.059-21.909-44.353-12.914-67.297-13.693-12.792-0.423-18.09-4.03-17.222-17.233 1.759-26.451-4.509-54.439 18.202-76.215 3.306-3.162 2.761-10.621 3.573-16.165 10.465-71.205 45.645-127.181 105.828-171.778 12.435 58.491 23.524 115.179 46.78 168.683zM208.87 386.813c2.115-8.171-3.919-17.657 5.344-22.087 7.771-3.741 12.992 3.273 18.324 7.793 7.604 6.413 16.622 6.969 26.051 6.947 108.077-0.111 216.131-0.178 324.208 0.067 11.221 0.022 21.24-1.804 29.189-9.997 5.633-5.789 12.291-8.194 19.082-4.23 6.701 3.918 4.053 11.756 3.406 17.634-4.207 38.208-7.748 76.727-38.92 105.16-3.316 3.028-4.475 8.75-6.123 13.381-20.684 57.668-59.85 99.459-113.153 127.715-40.301 21.352-81.036 17.969-119.599-5.967-48.517-30.125-85.288-70.248-103.98-125.266-1.336-3.896-2.806-8.417-5.689-11.044-29.946-27.342-33.063-64.481-38.14-100.106z" fill="#c0020c" p-id="17217"></path><path d="M955.609 526.818c-92.758 0-180.082-76.393-180.928-77.172-7.973-7.214-18.014-10.776-28.055-10.776-10.043 0-20.039 3.563-27.967 10.688-1.313 1.158-87.77 77.261-180.951 77.261-23.066 0-41.826 18.613-41.826 41.637V694.41c0 114.021 67.876 209.809 226.896 320.111a41.682 41.682 0 0 0 23.848 7.48 41.688 41.688 0 0 0 23.867-7.48C929.557 904.218 997.38 808.431 997.38 694.41V568.455c0.001-23.023-18.659-41.637-41.771-41.637zM834.086 730.414h-58.314v58.336h-58.268v-58.336h-58.336v-58.336h58.336V613.81h58.268v58.268h58.314v58.336z" fill="#eeb1ab" p-id="17218"></path><path d="M597.58 844.48V605.059c-3.918-1.291-7.881-2.492-11.799-3.785-15.053-4.941-24.314-2.938-33.979 9.887-66.262 87.814-201.391 86.211-266.072-3.072-7.437-10.332-14.873-11.846-26.986-7.928-55.975 18.17-112.218 35.447-168.505 52.547-20.796 6.324-32.597 21.598-36.649 40.746-9.263 43.686-17.1 87.771-23.379 131.99-5.21 36.738 5.878 47.781 42.928 47.781 115.803 0.045 231.583 0 347.386 0 115.781 0 231.562 0.09 347.341 0 27.811-0.045 41.48-8.572 43.551-28.744H597.58z" fill="#eeb1ab" p-id="17219"></path></svg>