<?xml version="1.0" standalone="no"?><!DOCTYPE svg PUBLIC "-//W3C//DTD SVG 1.1//EN" "http://www.w3.org/Graphics/SVG/1.1/DTD/svg11.dtd"><svg t="1706173115424" class="icon" viewBox="0 0 1024 1024" version="1.1" xmlns="http://www.w3.org/2000/svg" p-id="22124" xmlns:xlink="http://www.w3.org/1999/xlink" width="200" height="200"><path d="M467.456 836.096c18.545778-19.399111 45.340444-19.399111 61.838222 0 16.497778 19.399111 16.497778 49.607111 0 66.901333a40.96 40.96 0 0 1-30.890666 12.913778 44.373333 44.373333 0 0 1-30.947556-12.913778c-16.497778-19.456-16.497778-49.664 0-66.901333z m519.395556-4.323556c20.650667 0 37.148444 17.294222 37.148444 38.855112 0 21.560889-16.497778 38.798222-37.091556 38.798222h-333.937777c-20.593778 0-37.091556-17.237333-37.091556-38.798222 0-21.617778 16.497778-38.855111 37.091556-38.855112zM398.222222 544.483556v202.24l-135.623111 139.832888a68.209778 68.209778 0 0 1-98.133333 0 73.159111 73.159111 0 0 1-5.12-95.345777l5.12-5.859556L398.222222 544.483556z m-184.718222 255.715555a34.133333 34.133333 0 0 0-24.576 10.467556 36.579556 36.579556 0 0 0 0 50.574222 34.133333 34.133333 0 0 0 49.152 0 36.579556 36.579556 0 0 0 0-50.574222 34.133333 34.133333 0 0 0-24.576-10.467556z m253.952-143.132444c18.545778-19.399111 45.340444-19.399111 61.838222 0 16.497778 19.399111 16.497778 49.607111 0 66.901333a40.96 40.96 0 0 1-30.890666 12.913778 44.373333 44.373333 0 0 1-30.947556-12.913778c-16.497778-19.456-16.497778-49.607111 0-66.901333z m519.395556-6.485334c20.650667 0 37.148444 17.294222 37.148444 38.855111 0 21.617778-16.497778 38.798222-37.091556 38.798223h-333.937777c-20.593778 0-37.091556-17.237333-37.091556-38.798223 0-21.617778 16.497778-38.855111 37.091556-38.855111zM500.508444 460.8c24.746667 0 45.340444 21.617778 45.340445 47.445333 0 25.884444-20.593778 47.445333-45.340445 47.445334-24.746667 0-45.340444-19.399111-45.340444-47.445334 0-25.884444 20.593778-47.445333 45.340444-47.445333z m486.4 8.647111c20.650667 0 37.148444 17.237333 37.148445 38.798222 0 21.617778-16.497778 38.855111-37.091556 38.855111h-333.937777c-20.593778 0-37.091556-17.294222-37.091556-38.855111 0-21.560889 16.497778-38.798222 37.091556-38.798222zM485.376 72.021333l5.12 4.664889 10.353778 10.752-103.594667 106.723556 41.870222 43.121778-69.176889 71.281777L470.129778 411.875556a114.062222 114.062222 0 0 0-68.266667 77.027555l-14.222222 14.791111L283.932444 397.084444 223.459556 459.434667l-21.447112-22.129778-16.497777 16.952889 3.413333 3.413333c8.704 9.045333 9.216 23.608889 1.934222 34.588445l-3.640889 4.437333-37.888 39.082667c-9.728 10.012444-24.177778 11.776-34.304 4.778666l-3.584-3.015111L6.997333 429.795556C-1.706667 420.864-2.275556 406.357333 5.063111 395.377778l3.640889-4.437334 37.944889-39.082666a26.851556 26.851556 0 0 1 33.792-5.063111l4.039111 3.299555 3.413333 3.527111 16.497778-16.952889-21.504-22.072888 215.495111-222.151112 15.815111 16.156445C387.185778 56.206222 449.991111 42.894222 485.262222 72.021333z m279.665778-12.458666c24.462222 0 48.810667 6.314667 70.656 19.000889l9.216 5.859555-128.910222 132.778667 98.190222 101.262222 128.967111-132.892444c35.271111 54.727111 31.687111 128.227556-10.808889 179.086222l-7.452444 8.305778-30.037334 30.890666h-360.106666l52.337777-53.816889a152.234667 152.234667 0 0 1 10.695111-179.086222l7.395556-8.248889 57.856-59.619555a141.596444 141.596444 0 0 1 102.001778-43.52z" fill="#666666" p-id="22125"></path></svg>