<?xml version="1.0" standalone="no"?><!DOCTYPE svg PUBLIC "-//W3C//DTD SVG 1.1//EN" "http://www.w3.org/Graphics/SVG/1.1/DTD/svg11.dtd"><svg t="1706172775844" class="icon" viewBox="0 0 1024 1024" version="1.1" xmlns="http://www.w3.org/2000/svg" p-id="18249" xmlns:xlink="http://www.w3.org/1999/xlink" width="200" height="200"><path d="M819.2 394.971429H307.2c-64.365714 0-117.028571-52.662857-117.028571-117.028572s52.662857-117.028571 117.028571-117.028571h512c16.091429 0 29.257143 13.165714 29.257143 29.257143s-13.165714 29.257143-29.257143 29.257142H307.2c-32.182857 0-58.514286 26.331429-58.514286 58.514286s26.331429 58.514286 58.514286 58.514286h512c16.091429 0 29.257143 13.165714 29.257143 29.257143s-13.165714 29.257143-29.257143 29.257143z" fill="#0194FF" p-id="18250"></path><path d="M804.571429 307.2H365.714286c-16.091429 0-29.257143-13.165714-29.257143-29.257143s13.165714-29.257143 29.257143-29.257143h438.857143c16.091429 0 29.257143 13.165714 29.257142 29.257143s-13.165714 29.257143-29.257142 29.257143zM702.171429 512H468.114286c-16.091429 0-29.257143-13.165714-29.257143-29.257143s13.165714-29.257143 29.257143-29.257143h234.057143c16.091429 0 29.257143 13.165714 29.257142 29.257143s-13.165714 29.257143-29.257142 29.257143zM365.714286 512h-29.257143c-16.091429 0-29.257143-13.165714-29.257143-29.257143s13.165714-29.257143 29.257143-29.257143h29.257143c16.091429 0 29.257143 13.165714 29.257143 29.257143s-13.165714 29.257143-29.257143 29.257143zM702.171429 629.028571H468.114286c-16.091429 0-29.257143-13.165714-29.257143-29.257142s13.165714-29.257143 29.257143-29.257143h234.057143c16.091429 0 29.257143 13.165714 29.257142 29.257143s-13.165714 29.257143-29.257142 29.257142zM365.714286 629.028571h-29.257143c-16.091429 0-29.257143-13.165714-29.257143-29.257142s13.165714-29.257143 29.257143-29.257143h29.257143c16.091429 0 29.257143 13.165714 29.257143 29.257143s-13.165714 29.257143-29.257143 29.257142zM702.171429 746.057143H468.114286c-16.091429 0-29.257143-13.165714-29.257143-29.257143s13.165714-29.257143 29.257143-29.257143h234.057143c16.091429 0 29.257143 13.165714 29.257142 29.257143s-13.165714 29.257143-29.257142 29.257143zM365.714286 746.057143h-29.257143c-16.091429 0-29.257143-13.165714-29.257143-29.257143s13.165714-29.257143 29.257143-29.257143h29.257143c16.091429 0 29.257143 13.165714 29.257143 29.257143s-13.165714 29.257143-29.257143 29.257143z" fill="#FD6A4B" p-id="18251"></path><path d="M760.685714 877.714286H307.2c-64.365714 0-117.028571-52.662857-117.028571-117.028572V277.942857c0-16.091429 13.165714-29.257143 29.257142-29.257143s29.257143 13.165714 29.257143 29.257143v482.742857c0 32.182857 26.331429 58.514286 58.514286 58.514286h453.485714c16.091429 0 29.257143-13.165714 29.257143-29.257143V365.714286c0-16.091429 13.165714-29.257143 29.257143-29.257143s29.257143 13.165714 29.257143 29.257143v424.228571c0 48.274286-39.497143 87.771429-87.771429 87.771429z" fill="#0194FF" p-id="18252"></path></svg>