<?xml version="1.0" standalone="no"?><!DOCTYPE svg PUBLIC "-//W3C//DTD SVG 1.1//EN" "http://www.w3.org/Graphics/SVG/1.1/DTD/svg11.dtd"><svg t="1706173008676" class="icon" viewBox="0 0 1024 1024" version="1.1" xmlns="http://www.w3.org/2000/svg" p-id="21091" xmlns:xlink="http://www.w3.org/1999/xlink" width="200" height="200"><path d="M640 256a384 384 0 0 1 384 384 384 384 0 0 1-384 384 384 384 0 0 1-384-384 384 384 0 0 1 384-384z" fill="#CAE5FF" p-id="21092"></path><path d="M874.88 1024H149.12A149.12 149.12 0 0 1 0 874.88V149.12A149.12 149.12 0 0 1 149.12 0h725.76A149.12 149.12 0 0 1 1024 149.12v725.76A147.2 147.2 0 0 1 877.44 1024zM149.12 85.12a64 64 0 0 0-64 64v725.76a64 64 0 0 0 64 64h725.76a64 64 0 0 0 64-64V149.12a64 64 0 0 0-64-64zM768 311.68a42.24 42.24 0 0 1 40.96 40.32 40.96 40.96 0 0 1-40.96 40.96h-42.24a108.16 108.16 0 0 1-196.48 0H256a40.96 40.96 0 0 1-40.96-40.96 40.96 40.96 0 0 1 40.96-40.32h275.2a107.52 107.52 0 0 1 196.48 0z m0 320a42.88 42.88 0 0 1 40.96 40.96 40.96 40.96 0 0 1-40.96 40.32H492.8a107.52 107.52 0 0 1-196.48 0H256a40.96 40.96 0 0 1-40.96-40.32 40.96 40.96 0 0 1 40.96-41.6h42.88a107.52 107.52 0 0 1 196.48 0z" fill="#409EFF" p-id="21093"></path></svg>