<?xml version="1.0" standalone="no"?><!DOCTYPE svg PUBLIC "-//W3C//DTD SVG 1.1//EN" "http://www.w3.org/Graphics/SVG/1.1/DTD/svg11.dtd"><svg t="1706172898698" class="icon" viewBox="0 0 1024 1024" version="1.1" xmlns="http://www.w3.org/2000/svg" p-id="19265" xmlns:xlink="http://www.w3.org/1999/xlink" width="200" height="200"><path d="M737.478 739.478h-451c-95.3 0-172.8-77.5-172.8-172.8v-280.3c0-95.3 77.5-172.9 172.8-172.9h451c95.3 0 172.8 77.5 172.8 172.9v280.2c0.1 95.4-77.5 172.9-172.8 172.9z m-451-536.3c-45.9 0-83.2 37.3-83.2 83.2v280.2c0 45.9 37.3 83.2 83.2 83.2h451c45.9 0 83.2-37.3 83.2-83.2v-280.2c0-45.9-37.3-83.2-83.2-83.2h-451z" fill="#3F85FF" p-id="19266"></path><path d="M768.078 808.478h-211.3v-69h-89.6v69h-211.2c-24.8 0-44.8 20.1-44.8 44.8s20.1 44.8 44.8 44.8h512.1c24.8 0 44.8-20.1 44.8-44.8s-20.1-44.8-44.8-44.8zM479.978 290.978h64v358.8h-64zM458.678 649.878h-64v-138c0-13.7-11.2-24.9-24.9-24.9h-85.4v-64h85.4c49 0 88.9 39.9 88.9 88.9v138z" fill="#A4BEEC" p-id="19267"></path><path d="M320.778 547.978c-8.2 0-16.4-3.1-22.6-9.4l-60.3-60.3c-12.5-12.5-12.5-32.8 0-45.3l60.3-60.4c12.5-12.5 32.8-12.5 45.3 0s12.5 32.8 0 45.3l-37.7 37.7 37.7 37.7c12.5 12.5 12.5 32.8 0 45.3-6.3 6.2-14.5 9.4-22.7 9.4z" fill="#3F85FF" p-id="19268"></path><path d="M629.378 649.878h-64v-138c0-49 39.9-88.9 89-88.9h85.3v64h-85.3c-13.8 0-24.9 11.2-24.9 24.9v138z" fill="#A4BEEC" p-id="19269"></path><path d="M697.578 547.978c-8.2 0-16.4-3.1-22.6-9.4-12.5-12.5-12.5-32.8 0-45.3l37.7-37.7-37.7-37.8c-12.5-12.5-12.5-32.8 0-45.3s32.8-12.5 45.3 0l60.3 60.4c12.5 12.5 12.5 32.8 0 45.3l-60.3 60.3c-6.4 6.3-14.6 9.5-22.7 9.5zM592.478 373.178c-8.2 0-16.4-3.1-22.6-9.4l-57.8-57.8-57.9 57.8c-12.5 12.5-32.8 12.5-45.3 0s-12.5-32.8 0-45.3l80.5-80.5c12.5-12.5 32.8-12.5 45.3 0l80.5 80.5c12.5 12.5 12.5 32.8 0 45.3-6.4 6.3-14.5 9.4-22.7 9.4z" fill="#3F85FF" p-id="19270"></path></svg>