<?xml version="1.0" standalone="no"?><!DOCTYPE svg PUBLIC "-//W3C//DTD SVG 1.1//EN" "http://www.w3.org/Graphics/SVG/1.1/DTD/svg11.dtd"><svg t="1706172009480" class="icon" viewBox="0 0 1024 1024" version="1.1" xmlns="http://www.w3.org/2000/svg" p-id="12694" xmlns:xlink="http://www.w3.org/1999/xlink" width="200" height="200"><path d="M610.29 375.05L444.48 152.31 153.95 375.05h456.34z" fill="#279ACC" p-id="12695"></path><path d="M739.25 375.05l-165.8-222.74-290.53 222.74h456.33z" fill="#279ACC" p-id="12696"></path><path d="M886.05 895.56H99.5v-551.5h786.55v193.87a31 31 0 1 1-62 0V406.05H161.49v427.52h662.57V706.44a31 31 0 0 1 62 0z" fill="#303030" p-id="12697"></path><path d="M760.69 406.05a31 31 0 0 1-31-31v-89.92h-80.45a31 31 0 0 1 0-62h142.44v151.92a31 31 0 0 1-30.99 31zM760.69 895.56H99.5V313.15a90.11 90.11 0 0 1 90-90h119.23a31 31 0 1 1 0 62H189.51a28.05 28.05 0 0 0-28 28v520.42h599.2a31 31 0 0 1 0 62z" fill="#303030" p-id="12698"></path><path d="M130.52 417.8A31 31 0 0 1 112 361.94l339.89-253 65 87.3a31 31 0 0 1-49.73 37l-28-37.58L149 411.68a30.92 30.92 0 0 1-18.48 6.12z" fill="#303030" p-id="12699"></path><path d="M739.28 406.05a31 31 0 0 1-24.89-12.49L567.36 196 301.78 399.65a31 31 0 0 1-37.72-49.2l315.48-241.86 184.58 248a31 31 0 0 1-24.84 49.51zM945.09 737.44H723.26a115.25 115.25 0 1 1 0-230.5h221.83zM723.26 568.93a53.26 53.26 0 1 0 0 106.52H883.1V568.93z" fill="#303030" p-id="12700"></path></svg>