<?xml version="1.0" standalone="no"?><!DOCTYPE svg PUBLIC "-//W3C//DTD SVG 1.1//EN" "http://www.w3.org/Graphics/SVG/1.1/DTD/svg11.dtd"><svg t="1706171754923" class="icon" viewBox="0 0 1024 1024" version="1.1" xmlns="http://www.w3.org/2000/svg" p-id="8044" width="200" height="200" xmlns:xlink="http://www.w3.org/1999/xlink"><path d="M512 0C352.4 0 222.6 129.8 222.6 289.4c0 159.6 129.8 289.4 289.4 289.4S801.4 449 801.4 289.4C801.4 129.8 671.6 0 512 0z m0 534.3c-135 0-244.9-109.8-244.9-244.9S377 44.5 512 44.5s244.9 109.8 244.9 244.9S647 534.3 512 534.3z" p-id="8045" fill="#1296db"></path><path d="M468.9 207.8c0-28.6 19.4-47.5 49.7-47.5 21.7 0 35.6 6.6 49.7 18.4 5.9 5 14.7 4.2 19.9-1.5l2.4-2.6c5.5-6 4.8-15.3-1.3-20.8-15.3-13.5-33.3-23.8-58.8-26.6V92.9c0-8-6.5-14.5-14.5-14.5s-14.5 6.5-14.5 14.5v35.2c-42.7 6.2-71.7 37.4-71.7 81.4 0 95.9 137.7 78.3 137.7 158.4 0 30.8-18.9 50.6-55.4 50.6-24.4 0-45.7-9.7-63.9-22.8-6.6-4.8-15.9-3.4-20.6 3.4l-2.5 3.6c-4.4 6.4-3.1 15.2 3.1 19.8 20.4 15.1 47 26.4 73.3 29v34.3c0 8 6.5 14.5 14.5 14.5s14.5-6.5 14.5-14.5v-35.2c46.6-6.6 76.1-38.7 76.1-85.4 0-105.5-137.7-85.7-137.7-157.4zM155.8 445.2h-89C30 445.2 0 475.2 0 512v445.2C0 994 30 1024 66.8 1024h89c36.8 0 66.8-30 66.8-66.8V512c0-36.8-29.9-66.8-66.8-66.8z m22.3 512c0 12.3-10 22.3-22.3 22.3h-89c-12.3 0-22.3-10-22.3-22.3V512c0-12.3 10-22.3 22.3-22.3h89c12.3 0 22.3 10 22.3 22.3v445.2zM957.2 445.2h-89c-36.8 0-66.8 30-66.8 66.8v445.2c0 36.8 30 66.8 66.8 66.8h89c36.8 0 66.8-30 66.8-66.8V512c0-36.8-30-66.8-66.8-66.8z m22.3 512c0 12.3-10 22.3-22.3 22.3h-89c-12.3 0-22.3-10-22.3-22.3V512c0-12.3 10-22.3 22.3-22.3h89c12.3 0 22.3 10 22.3 22.3v445.2zM556.5 623.3h-89c-36.8 0-66.8 30-66.8 66.8v267.1c0 36.8 30 66.8 66.8 66.8h89c36.8 0 66.8-30 66.8-66.8V690.1c0-36.8-30-66.8-66.8-66.8z m22.3 333.9c0 12.3-10 22.3-22.3 22.3h-89c-12.3 0-22.3-10-22.3-22.3V690.1c0-12.3 10-22.3 22.3-22.3h89c12.3 0 22.3 10 22.3 22.3v267.1z" p-id="8046" fill="#1296db"></path></svg>